Patient4_TMGait_0pt8_01_right_29_EMG.mot
version=1
nRows=20
nColumns=33
inDegrees=no
endheader
time	1LAddLong	2LGlutMax	3LGlutMed	4LIliopsoas	5LSemiMemb	6LBicFemLong	7LRecFem	8LVastMed	9LVastLat	10LGasMed	11LTibAnt	12lTibPost	13LPeroneusLong	14LSol	15LExtDigLong	16LFlexDigLong	17RAddLong	18RGlutMax	19RGlutMed	20RIliopsoas	21RSemiMemb	22RBicFemLong	23RRecFem	24RVastMed	25RVastLat	26RGasMed	27RTibAnt	28RTibPost	29RPeroneusLong	30RSol	31RExtDigLong	32RFlexDigLong
32.797	-0.017242	-0.34576	0.3125	0.011749	0.019073	-0.027771	0.2388	0.000305	0.16556	-0.050964	-0.074463	0.000305	-0.092316	0.20828	-0.18463	0.031281	0.061493	0.50797	-0.50262	0.028381	-0.12497	0.12299	0.050812	-0.13428	0.001221	-0.026245	0.09552	0.18921	0.38132	0.005341	-0.002136	-0.029144
32.798	-0.015106	-0.41092	0.27588	0.027771	0.013733	-0.014343	0.1796	0.009308	0.16296	-0.03418	-0.039063	0.001831	-0.082397	0.15808	-0.18524	0.11536	0.09903	0.61356	-0.78629	0.035095	0.081024	0.040741	0.090179	-0.22705	-0.015411	-0.02533	0.13718	0.049591	-0.080109	0.16266	-0.003204	-0.032196
32.799	-0.021057	-0.41306	0.31876	0.011597	0.01236	-0.02182	0.16739	0.017853	0.14694	-0.015869	0.068359	0.004272	-0.067749	0.12985	-0.094299	0.037689	0.020142	0.6105	-0.82092	0.018311	-0.052032	0.067749	0.1416	-0.26962	-0.061798	0.003662	0.018158	-0.68237	0.77576	-0.002747	-0.003052	-0.023346
32.8	-0.021362	-0.38544	0.30411	-0.001526	0.009766	-0.028992	0.18143	0.016937	0.15579	0.034637	0.09491	0.004578	-0.095062	0.067902	-0.065613	0.042419	-0.00061	0.55466	-0.51468	-0.005188	-0.44525	0.10956	0.2153	-0.17746	-0.059509	-0.11139	0.082703	-0.19211	1.4449	-0.38864	-0.00351	-0.030365
32.801	-0.024567	-0.36804	0.3125	0.010834	0.003357	-0.05188	0.17761	0.015106	0.14297	0.060577	0.030823	0.007324	-0.089722	0.065002	-0.029755	-0.092926	-0.005188	0.26047	-0.71426	-0.041046	-0.58121	0.14069	0.24612	-0.086517	-0.070953	-0.16785	0.10483	0.3627	0.08606	-0.14099	-0.00061	-0.021362
32.802	-0.025787	-0.3772	0.35919	0.023804	0.004425	-0.083923	0.16373	0.010681	0.13336	0.06958	-0.060883	0.00946	-0.05661	0.08194	-0.05722	-0.010834	-0.010681	-0.014954	-0.19272	-0.14786	-0.36423	-0.061188	0.30075	-0.02655	-0.06958	-0.12054	-0.12146	0.19241	-0.49423	-0.088196	-0.00351	-0.015411
32.803	-0.02533	-0.52811	0.39261	0.040436	0.015717	-0.07019	0.30456	0.011444	0.12665	0.057678	-0.031586	0.010834	-0.091553	0.071564	-0.015106	0.080109	0.010834	-0.074158	0.46967	-0.12253	-0.44327	-0.16708	0.40741	-0.045471	-0.075378	-0.099335	-0.16617	-0.039368	-0.034943	-0.19714	-0.003052	-0.024414
32.804	-0.03006	-0.62546	0.3772	0.01709	0.006409	-0.069275	0.39322	0.006866	0.14084	0.05127	-0.003357	0.01236	-0.15579	0.024567	-0.023651	0.038605	0.071411	-0.33905	-0.43457	0.073853	0.060577	-0.51575	0.43427	0.022736	-0.046844	0.005646	0.018158	-0.17807	-1.3097	-0.27176	-0.007629	-0.009308
32.805	-0.034332	-0.62485	0.41443	0.010681	0.016479	-0.061188	0.44586	0.00473	0.076752	0.04303	0.061798	0.014038	-0.17456	0.024719	0.009308	0.081482	0.10483	-0.4747	-1.2851	0.11536	0.31403	-0.63416	0.31204	-0.060577	-0.008698	0.034027	0.12512	0.28061	-0.46158	0.23346	-0.001678	-0.010681
32.806	-0.029755	-0.56366	0.39459	0	0.022888	-0.050354	0.43442	0.006409	0.052338	0.04715	0.22858	0.032196	-0.1918	0.028839	0.089417	0.079041	0.062866	-0.46005	-1.4479	0.1503	0.058136	-0.32883	0.34698	-0.072174	0.099182	-0.012665	0.024567	0.084991	-0.15518	0.6163	-0.000305	-0.014648
32.807	-0.024109	-0.53833	0.42374	-0.010376	0.031738	-0.056458	0.34012	-0.00473	0.034943	0.077972	0.31662	0.03067	-0.17914	0.027008	0.18631	0.074005	0.006866	-0.43884	-1.678	0.072632	-0.73624	0.22949	0.49759	-0.014191	0.088348	-0.020142	-0.086212	-0.12283	-0.24994	0.17181	-0.002899	-0.008392
32.808	-0.017853	-0.51804	0.46539	0.005035	0.029297	-0.037384	0.19806	0.002441	0.013733	0.0737	0.30991	0.036163	-0.09491	0.098724	0.018921	0.073547	-0.038605	-0.35797	-1.0223	-0.08728	-0.78308	0.50583	0.4982	0.11993	0.04715	-0.062103	-0.007782	-0.14786	0.36667	-0.1152	-0.004883	-0.01297
32.809	-0.025177	-0.51605	0.46799	0.008698	0.029144	-0.023346	0.024872	-0.008392	0.020294	0.10422	0.040588	0.043488	0.049133	0.15823	0.10468	0.072632	-0.08606	-0.26047	0.54733	-0.20966	-0.18814	0.26916	0.49728	0.089722	0.088654	-0.040741	0.089722	0.072174	0.67413	-0.26321	-0.004883	-0.008087
32.81	-0.011902	-0.54016	0.49072	-0.011444	0.037842	0.002899	-0.12497	-0.013428	-0.010681	0.20798	-0.28824	0.051727	-0.023346	0.15823	0.51224	0.076141	-0.059204	-0.21835	0.01709	-0.21072	0.41992	-0.012512	0.58868	0.048523	0.098267	0.11261	0.1062	0.054626	2.1957	-0.32303	-0.002594	-0.009613
32.811	-0.007324	-0.58029	0.48782	-0.020447	0.023346	0.036621	-0.10773	-0.007172	-0.025024	0.20248	0.028229	0.044556	-0.083923	0.11139	1.1456	0.075989	-0.069885	-0.088959	-0.26077	-0.1593	0.31113	-0.34363	0.51102	0.10803	0.45212	0.093079	0.045013	-0.010529	0.041962	-0.34042	0.00061	-0.012817
32.812	-0.015564	-0.61768	0.46234	0.010376	0.020905	0.058441	-0.11353	0.012665	-0.04776	0.31113	0.19638	0.037842	-0.05661	0.085297	0.63904	0.090485	-0.085449	0.16541	0.20432	-0.010071	0.059814	-0.24506	0.43854	0.16892	0.73914	0.052032	-0.090485	-0.022736	-1.2151	-0.26199	-0.003662	-0.012817
32.813	-0.018921	-0.55405	0.45471	0.023499	0.014954	0.077057	0.054016	-0.033722	-0.024872	0.16571	-0.076599	0.043793	0.046234	-0.00061	-0.060272	0.071259	-0.15488	0.18646	-0.69412	0.2092	-0.19592	0.053711	0.20538	0.21194	1.0043	0.072632	0.059814	-0.052032	-0.94788	-0.096283	-0.010223	-0.012665
32.814	-0.022125	-0.49164	0.45166	-0.005341	0.006561	0.10834	0.11673	-0.001678	-0.01709	-0.29694	-0.20325	0.036163	0.098114	-0.05188	-1.2581	0.069885	-0.15839	0.36774	-0.58411	0.15579	0.083008	-0.16327	-0.13809	0.25772	0.87341	0.07019	0.020599	-0.083313	0.10117	-0.23025	-0.006866	-0.022736
32.815	-0.012512	-0.33554	0.45761	0.003662	0.012054	0.10712	0.020447	0.003815	-0.03006	-0.10712	-0.32867	0.029144	0.046387	-0.10025	-0.7843	0.072021	-0.13382	0.46143	-0.54733	0.063629	0.46677	-0.24567	-0.73563	0.39795	0.53375	0.030823	-0.027008	-0.11337	1.2349	-0.55862	-0.00412	-0.021057
32.816	-0.013428	-0.21225	0.44952	0.017548	0.012512	0.090637	0.053406	0.015411	-0.028381	0.041809	-0.32791	0.040588	0.010376	-0.17883	-0.80505	0.074158	-0.092773	0.43335	-0.36865	0.026703	0.3746	-0.092926	-0.75409	0.36087	-0.08728	-0.013428	0.15778	-0.027771	-0.079651	-0.10574	-0.00351	-0.018005
